<svg width="200" height="67" viewBox="0 0 200 67" fill="none" xmlns="http://www.w3.org/2000/svg">
<path d="M158.4 18.5112V62.1868H175V1.81508e-09H152.416L127.449 47.07L102.481 1.81508e-09H79.8076V54.3442L59.9685 16.0325L59.5661 16.4392L48.2181 26.8351L53.9231 38.8667H35.0844L9.61538 62.1987H19.0613L24.8756 50.3565H59.4008L65.2151 62.1987H83.875L83.8688 62.1868H96.4978V18.5112L119.441 62.1868H135.456L158.4 18.5112Z" fill="white"/>
<path d="M45.673 0.485841H33.0929L21.1538 23.8059L45.673 0.485841Z" fill="white"/>
<path d="M181.731 20.8909L199.038 5.34418V1.81508e-09H181.731V20.8909Z" fill="white"/>
<path d="M199.639 9.72336C200.166 10.3266 200.11 11.2477 199.513 11.7806L183.621 25.9675C183.025 26.5005 182.113 26.4435 181.586 25.8402C181.058 25.237 181.115 24.3159 181.712 23.7829L197.603 9.59605C198.2 9.06311 199.111 9.12011 199.639 9.72336Z" fill="white"/>
<path d="M199.171 16.2308C199.692 16.8401 199.625 17.7605 199.022 18.2865L183.635 31.7108C183.032 32.2368 182.121 32.1693 181.6 31.56C181.08 30.9507 181.147 30.0303 181.75 29.5043L197.137 16.0801C197.74 15.554 198.651 15.6215 199.171 16.2308Z" fill="white"/>
<path d="M199.022 24.1165C199.625 23.5905 199.692 22.6702 199.171 22.0609C198.651 21.4515 197.74 21.384 197.137 21.9101L181.75 35.3343C181.147 35.8603 181.08 36.7807 181.6 37.39C182.121 37.9993 183.032 38.0668 183.635 37.5408L199.022 24.1165Z" fill="white"/>
<path d="M199.153 27.8697C199.685 28.4687 199.636 29.3902 199.043 29.9279L183.175 44.3238C182.582 44.8615 181.67 44.8119 181.138 44.2129C180.606 43.6139 180.655 42.6924 181.248 42.1547L197.116 27.7588C197.709 27.2211 198.62 27.2707 199.153 27.8697Z" fill="white"/>
<path d="M199.043 35.7781C199.636 35.2403 199.685 34.3188 199.153 33.7198C198.62 33.1209 197.709 33.0712 197.116 33.609L181.248 48.0048C180.655 48.5426 180.606 49.4641 181.138 50.0631C181.67 50.662 182.582 50.7117 183.175 50.1739L199.043 35.7781Z" fill="white"/>
<path d="M181.731 53.9276L199.038 38.3809V62.1868H181.731V53.9276Z" fill="white"/>
<path d="M50.9951 0.473678C51.5328 1.06758 51.4923 1.98951 50.9046 2.53286L5.7123 44.3146L3.76514 42.1639L48.9574 0.382158C49.5451 -0.161198 50.4574 -0.120223 50.9951 0.473678Z" fill="white"/>
<path d="M53.7945 5.92896C54.3796 5.38276 54.4158 4.46064 53.8753 3.86936C53.3348 3.27808 52.4223 3.24153 51.8372 3.78774L2.39473 49.942L4.35209 52.0832L42.1998 16.7526L42.7965 15.5467L43.0097 15.9965L53.7945 5.92896Z" fill="white"/>
<path d="M39.9424 21.315L1.4409 56.7365L3.38285 58.892L36.3621 28.5509L39.9424 21.315Z" fill="white"/>
<path d="M45.1354 20.4795L43.834 17.7347L54.2487 8.1531C54.8377 7.6112 55.75 7.65443 56.2862 8.24966C56.8225 8.84488 56.7797 9.76671 56.1907 10.3086L45.1354 20.4795Z" fill="white"/>
<path d="M34.0126 33.2994L0 64.5086L1.93913 66.6667L32.2363 38.8667H31.258L34.0126 33.2994Z" fill="white"/>
<path d="M47.3001 25.0446L45.9991 22.3009L56.654 12.5243C57.2437 11.9832 58.1559 12.0276 58.6913 12.6236C59.2268 13.2195 59.1828 14.1413 58.5931 14.6824L47.3001 25.0446Z" fill="white"/>
</svg>
